<svg xmlns="http://www.w3.org/2000/svg" viewBox="0 0 640 480">
  <path fill="#bd3d44" d="M0 0h640v480H0"/>
  <path stroke="#fff" stroke-width="37" d="M0 55.3h640M0 129.5h640M0 203.7h640M0 277.9h640M0 352.1h640M0 426.3h640"/>
  <path fill="#192f5d" d="M0 0h364.8v259.5H0"/>
  <path fill="#fff" d="M30.4 11l3.4 10.3h10.6l-8.6 6.3 3.3 10.3-8.7-6.4-8.6 6.3 3.3-10.2-8.6-6.3h10.7zm60.8 0l3.3 10.3h10.8l-8.7 6.3 3.3 10.3-8.7-6.4-8.6 6.3 3.3-10.2-8.7-6.3h10.8zm60.8 0l3.3 10.3H166l-8.6 6.3 3.3 10.3-8.7-6.4-8.7 6.3 3.3-10.2-8.6-6.3h10.7zm60.8 0l3.3 10.3h10.8l-8.7 6.3 3.3 10.3-8.7-6.4-8.6 6.3 3.3-10.2-8.7-6.3h10.8zm60.8 0l3.3 10.3h10.7l-8.6 6.3 3.3 10.3-8.7-6.4-8.7 6.3 3.4-10.2-8.7-6.3h10.7zm60.8 0l3.3 10.3h10.8l-8.7 6.3 3.3 10.3-8.7-6.4-8.6 6.3 3.3-10.2-8.7-6.3h10.8zM60.8 37l3.3 10.2H75l-8.7 6.2 3.2 10.3-8.5-6.3-8.7 6.3 3.3-10.3-8.6-6.2h10.7zm60.8 0l3.4 10.2h10.7l-8.7 6.2 3.3 10.3-8.7-6.3-8.6 6.3 3.3-10.3-8.7-6.2h10.8zm60.8 0l3.3 10.2h10.8l-8.7 6.2 3.3 10.3-8.7-6.3-8.6 6.3 3.3-10.3-8.7-6.2h10.8zm60.8 0l3.3 10.2h10.8l-8.7 6.2 3.3 10.3-8.7-6.3-8.6 6.3 3.3-10.3-8.7-6.2h10.8zm60.8 0l3.3 10.2h10.8l-8.7 6.2 3.3 10.3-8.7-6.3-8.7 6.3 3.4-10.3-8.7-6.2h10.7zM30.4 62.6l3.4 10.4h10.6l-8.6 6.2 3.3 10.3-8.7-6.3-8.6 6.3 3.3-10.3-8.6-6.2h10.7zm60.8 0l3.3 10.4h10.8l-8.7 6.2 3.3 10.3-8.7-6.3-8.6 6.3 3.3-10.3-8.7-6.2h10.8zm60.8 0l3.3 10.4H166l-8.6 6.2 3.3 10.3-8.7-6.3-8.7 6.3 3.3-10.3-8.6-6.2h10.7zm60.8 0l3.3 10.4h10.8l-8.7 6.2 3.3 10.3-8.7-6.3-8.6 6.3 3.3-10.3-8.7-6.2h10.8zm60.8 0l3.3 10.4h10.7l-8.6 6.2 3.3 10.3-8.7-6.3-8.7 6.3 3.4-10.3-8.7-6.2h10.7zm60.8 0l3.3 10.4h10.8l-8.7 6.2 3.3 10.3-8.7-6.3-8.6 6.3 3.3-10.3-8.7-6.2h10.8zM60.8 88.6l3.3 10.2H75l-8.7 6.3 3.3 10.2-8.7-6.2-8.7 6.2 3.4-10.2-8.7-6.3h10.7zm60.8 0l3.4 10.2h10.7l-8.7 6.3 3.3 10.2-8.7-6.2-8.6 6.2 3.3-10.2-8.7-6.3h10.8zm60.8 0l3.3 10.2h10.8l-8.7 6.3 3.3 10.2-8.7-6.2-8.6 6.2 3.3-10.2-8.7-6.3h10.8zm60.8 0l3.3 10.2h10.8l-8.7 6.3 3.3 10.2-8.7-6.2-8.6 6.2 3.3-10.2-8.7-6.3h10.8zm60.8 0l3.3 10.2h10.8l-8.7 6.3 3.3 10.2-8.7-6.2-8.7 6.2 3.4-10.2-8.7-6.3h10.7zM30.4 114.5l3.4 10.2h10.6l-8.6 6.3 3.3 10.2-8.7-6.2-8.6 6.2 3.3-10.2-8.6-6.3h10.7zm60.8 0l3.3 10.2h10.8l-8.7 6.3 3.3 10.2-8.7-6.2-8.6 6.2 3.3-10.2-8.7-6.3h10.8zm60.8 0l3.3 10.2H166l-8.6 6.3 3.3 10.2-8.7-6.2-8.7 6.2 3.3-10.2-8.6-6.3h10.7zm60.8 0l3.3 10.2h10.8l-8.7 6.3 3.3 10.2-8.7-6.2-8.6 6.2 3.3-10.2-8.7-6.3h10.8zm60.8 0l3.3 10.2h10.7l-8.6 6.3 3.3 10.2-8.7-6.2-8.7 6.2 3.4-10.2-8.7-6.3h10.7zm60.8 0l3.3 10.2h10.8l-8.7 6.3 3.3 10.2-8.7-6.2-8.6 6.2 3.3-10.2-8.7-6.3h10.8zM60.8 140.3l3.3 10.3H75l-8.7 6.2 3.3 10.3-8.7-6.3-8.7 6.3 3.4-10.3-8.7-6.2h10.7zm60.8 0l3.4 10.3h10.7l-8.7 6.2 3.3 10.3-8.7-6.3-8.6 6.3 3.3-10.3-8.7-6.2h10.8zm60.8 0l3.3 10.3h10.8l-8.7 6.2 3.3 10.3-8.7-6.3-8.6 6.3 3.3-10.3-8.7-6.2h10.8zm60.8 0l3.3 10.3h10.8l-8.7 6.2 3.3 10.3-8.7-6.3-8.6 6.3 3.3-10.3-8.7-6.2h10.8zm60.8 0l3.3 10.3h10.8l-8.7 6.2 3.3 10.3-8.7-6.3-8.7 6.3 3.4-10.3-8.7-6.2h10.7zM30.4 166.1l3.4 10.3h10.6l-8.6 6.3 3.3 10.2-8.7-6.2-8.6 6.2 3.3-10.2-8.6-6.3h10.7zm60.8 0l3.3 10.3h10.8l-8.7 6.3 3.3 10.2-8.7-6.2-8.6 6.2 3.3-10.2-8.7-6.3h10.8zm60.8 0l3.3 10.3H166l-8.6 6.3 3.3 10.2-8.7-6.2-8.7 6.2 3.3-10.2-8.6-6.3h10.7zm60.8 0l3.3 10.3h10.8l-8.7 6.3 3.3 10.2-8.7-6.2-8.6 6.2 3.3-10.2-8.7-6.3h10.8zm60.8 0l3.3 10.3h10.7l-8.6 6.3 3.3 10.2-8.7-6.2-8.7 6.2 3.4-10.2-8.7-6.3h10.7zm60.8 0l3.3 10.3h10.8l-8.7 6.3 3.3 10.2-8.7-6.2-8.6 6.2 3.3-10.2-8.7-6.3h10.8zM60.8 192l3.3 10.2H75l-8.7 6.3 3.3 10.2-8.7-6.3-8.7 6.3 3.4-10.2-8.7-6.3h10.7zm60.8 0l3.4 10.2h10.7l-8.7 6.3 3.3 10.2-8.7-6.3-8.6 6.3 3.3-10.2-8.7-6.3h10.8zm60.8 0l3.3 10.2h10.8l-8.7 6.3 3.3 10.2-8.7-6.3-8.6 6.3 3.3-10.2-8.7-6.3h10.8zm60.8 0l3.3 10.2h10.8l-8.7 6.3 3.3 10.2-8.7-6.3-8.6 6.3 3.3-10.2-8.7-6.3h10.8zm60.8 0l3.3 10.2h10.8l-8.7 6.3 3.3 10.2-8.7-6.3-8.7 6.3 3.4-10.2-8.7-6.3h10.7zM30.4 217.9l3.4 10.2h10.6l-8.6 6.3 3.3 10.2-8.7-6.3-8.6 6.3 3.3-10.2-8.6-6.3h10.7zm60.8 0l3.3 10.2h10.8l-8.7 6.3 3.3 10.2-8.7-6.3-8.6 6.3 3.3-10.2-8.7-6.3h10.8zm60.8 0l3.3 10.2H166l-8.6 6.3 3.3 10.2-8.7-6.3-8.7 6.3 3.3-10.2-8.6-6.3h10.7zm60.8 0l3.3 10.2h10.8l-8.7 6.3 3.3 10.2-8.7-6.3-8.6 6.3 3.3-10.2-8.7-6.3h10.8zm60.8 0l3.3 10.2h10.7l-8.6 6.3 3.3 10.2-8.7-6.3-8.7 6.3 3.4-10.2-8.7-6.3h10.7zm60.8 0l3.3 10.2h10.8l-8.7 6.3 3.3 10.2-8.7-6.3-8.6 6.3 3.3-10.2-8.7-6.3h10.8z"/>
</svg>
